<?xml version="1.0" encoding="utf-8"?>
<!-- Generator: Adobe Illustrator 25.2.1, SVG Export Plug-In . SVG Version: 6.00 Build 0)  -->
<svg version="1.1" id="Layer_1" xmlns="http://www.w3.org/2000/svg" xmlns:xlink="http://www.w3.org/1999/xlink" x="0px" y="0px"
	 viewBox="0 0 118.7 20.9" style="enable-background:new 0 0 118.7 20.9;" xml:space="preserve">
<path d="M0.7,11.8l-0.5-0.6l0.3-1.7l0.2-0.8c0.2-1.3,0.2-1,0.9-1.6c0,0,0.2,0.2,0.5,0.6l-0.7,3.6L0.7,11.8z M2.6,3.2l0.2,0.3
	L2.4,6.1L1.7,6.6C1.1,6,1.3,5.8,1.4,5l0.2-1.2c0-0.4,0.3-0.8,0.7-1.1L2.6,3.2z M2.3,7.4L2,7.1L1.8,6.8l0.3-0.3l0.3-0.3h2.9l0.3,0.3
	l0.2,0.2L5.5,7.1L5.1,7.4H2.3z M5.9,3.2H3L2.5,2.6C3.1,2.1,2.9,2.1,4,2.1h1.5c1,0,0.8,0,1.2,0.5L5.9,3.2z M6,7
	c0.4,0.4,0.5,0.5,0.4,0.8S6.3,8.6,6.3,8.6l-0.5,2.6l-0.7,0.5l-0.5-0.6l0.7-3.6L6,7z M5.6,5.9l0.5-2.5l0.8-0.6
	c0.4,0.5,0.3,0.4,0.4,0.6c0,0.1-0.1,0.7-0.2,0.9L6.9,5C6.7,6.1,6.8,6.1,6.1,6.6L5.6,6.1L5.6,5.9z"/>
<path d="M8.7,11.2L8,11.8l-0.5-0.6l0.7-3.7L8.9,7l0.4,0.5L8.7,11.2z M9.7,6.1L9,6.7L8.5,6.1l0.6-3.4l0.7-0.6l0.5,0.5L9.7,6.1z
	 M9.3,9.3l3-2.4h0.8v0.8L9,10.9L9.3,9.3z M14,6.1l-0.7,0.5l-0.5-0.6l0.7-3.4l0.7-0.6l0.5,0.5L14,6.1z"/>
<path d="M15.6,11.8L15,11.2l0.3-1.7l0.2-0.8c0.2-1.3,0.2-1,0.9-1.6c0,0,0.2,0.2,0.4,0.6l-0.7,3.6L15.6,11.8z M17.4,3.2l0.2,0.3
	l-0.5,2.7l-0.7,0.5C15.9,6,16.1,5.8,16.2,5l0.2-1.2c0-0.4,0.3-0.8,0.7-1.1L17.4,3.2z M17.1,7.4l-0.3-0.3l-0.2-0.2L17,6.5l0.3-0.3
	h2.9l0.3,0.3l0.2,0.2l-0.3,0.3L20,7.4H17.1z M20.8,3.2h-2.9l-0.5-0.6c0.6-0.5,0.5-0.5,1.5-0.5h1.5c1,0,0.8,0,1.2,0.5L20.8,3.2z
	 M20.8,7c0.4,0.4,0.5,0.5,0.4,0.8s-0.1,0.8-0.1,0.8l-0.5,2.6l-0.7,0.5l-0.5-0.6l0.7-3.6L20.8,7z M20.4,5.9l0.5-2.5l0.8-0.6
	C22,3.3,22,3.2,22,3.4c0,0.1-0.1,0.7-0.2,0.9L21.7,5c-0.2,1.1-0.2,1.1-0.9,1.7l-0.5-0.5L20.4,5.9z"/>
<path d="M23.5,11.2l-0.7,0.5l-0.5-0.6L23,7.5L23.8,7l0.4,0.5L23.5,11.2z M24.5,6.1l-0.7,0.5l-0.5-0.6L24,2.7l0.7-0.6l0.4,0.5
	L24.5,6.1z M26.1,2.7l1.5,2.7l-0.2,1h-0.6l-1.6-2.8l0.2-0.8L26.1,2.7z M27.9,11.2l-0.7,0.5l-0.5-0.6l0.7-3.6L28.2,7l0.5,0.5
	L27.9,11.2z M28.9,6.1l-0.7,0.5l-0.5-0.5l0.6-3.5l0.7-0.6l0.4,0.5L28.9,6.1z"/>
<path d="M30.9,2.1h4.5l0.4,0.5c0,0-0.8,0.6-0.8,0.6h-4.2l-0.5-0.7L30.9,2.1z M32,11.2l-0.6,0.5l-0.5-0.6l0.7-3.7L32.2,7l0.4,0.5
	L32,11.2z M33,6.1l-0.6,0.5l-0.5-0.6l0.5-2.6h1.1L33,6.1z"/>
<path d="M35.6,11.8l-0.5-0.6l0.3-1.7l0.2-0.8c0.2-1.3,0.2-1,0.9-1.6c0,0,0.2,0.2,0.5,0.6l-0.7,3.6L35.6,11.8z M37.5,3.2l0.2,0.3
	l-0.5,2.7l-0.7,0.5C36,6,36.1,5.8,36.3,5l0.2-1.2c0-0.4,0.3-0.8,0.7-1.1L37.5,3.2z M37.2,7.4l-0.3-0.3l-0.2-0.2L37,6.5l0.3-0.3h2.9
	l0.3,0.3l0.2,0.2l-0.3,0.3L40,7.4H37.2z M40.8,3.2h-2.9l-0.5-0.6c0.6-0.5,0.5-0.5,1.5-0.5h1.5c1,0,0.7,0,1.2,0.5L40.8,3.2z M40.8,7
	c0.4,0.4,0.5,0.5,0.4,0.8l-0.2,0.8l-0.5,2.6L40,11.8l-0.5-0.6l0.7-3.6L40.8,7z M40.5,5.9l0.5-2.5l0.8-0.6c0.4,0.5,0.3,0.4,0.4,0.6
	c0,0.1-0.1,0.7-0.2,0.9L41.8,5c-0.2,1.1-0.2,1.1-0.9,1.7l-0.5-0.5L40.5,5.9z"/>
<path d="M44.1,7.6l-0.5,2.8L42.9,11l-0.3-0.4c-0.1-0.1-0.1-0.2-0.1-0.4c0-0.2,0.1-0.6,0.1-0.8l0.2-0.8C43,7.3,43,7.7,43.7,7
	C43.7,7,43.8,7.3,44.1,7.6z M46.9,10.8l0.3,0.4c-0.6,0.5-0.6,0.5-1.6,0.5H44c-0.7,0-0.6,0-1-0.5c0,0,0.8-0.7,0.8-0.7h2.8L46.9,10.8z
	 M44.7,3.2l0.2,0.3l-0.5,2.7l-0.7,0.5C43.1,6,43.3,5.8,43.4,5l0.2-1.2c0-0.4,0.3-0.8,0.7-1.1L44.7,3.2z M48,3.2h-2.9l-0.6-0.6
	c0.6-0.5,0.5-0.5,1.6-0.5h1.5c1,0,0.8,0,1.2,0.5L48,3.2z M46.5,7.4l-0.6-0.6c0.6-0.5,0.5-0.5,1.5-0.5h1.1l-1.4,1.1H46.5z M47.4,11
	l-0.5-0.6l0.3-1.8l0.2-1l1.3-1.1l-0.5,3C48,10.8,48.1,10.4,47.4,11L47.4,11z"/>
<path d="M49.7,8.7c0.2-1.3,0.2-1,0.9-1.6c0,0,0.2,0.2,0.5,0.6l-0.5,2.7l-1.3,1.1l0.4-1.9L49.7,8.7z M53.4,11.6h-4.1l1.4-1.1h2.8
	l0.5,0.7L53.4,11.6z M51.7,3.1l0.2,0.2l-0.5,2.8l-0.7,0.5C50.1,6,50.3,5.8,50.4,5l0.2-1.2L51,2.2L51.7,3.1z M51.3,7.4L51,7.1
	l-0.2-0.2l0.3-0.3l0.3-0.3h2.9l0.3,0.3l0.2,0.2l-0.3,0.3l-0.4,0.3H51.3z M54.9,3.2h-2.8l-1-1.2h4.1l0.4,0.5L54.9,3.2z"/>
<path d="M60.1,11.2l-0.7,0.5l-0.5-0.6l0.7-3.7L60.4,7l0.4,0.5L60.1,11.2z M61.1,6.1l-0.7,0.5l-0.5-0.6l0.7-3.4l0.7-0.6l0.4,0.5
	L61.1,6.1z M62.7,2.7l1.6,2.7L64,6.4h-0.7l-1.6-2.8l0.2-0.8L62.7,2.7z M64.5,11.2l-0.6,0.5l-0.5-0.6l0.7-3.6L64.8,7l0.4,0.5
	L64.5,11.2z M65.5,6.1l-0.7,0.5l-0.5-0.5L65,2.7l0.7-0.6l0.4,0.5L65.5,6.1z"/>
<path d="M68.1,7.6l-0.5,2.8l-0.7,0.6l-0.3-0.4c-0.1-0.1-0.1-0.2-0.1-0.4c0-0.3,0.1-0.5,0.1-0.8l0.2-0.8C67,7.3,67,7.7,67.7,7
	C67.7,7,67.8,7.3,68.1,7.6z M70.9,10.8l0.3,0.4c-0.6,0.5-0.6,0.5-1.6,0.5h-1.5c-0.7,0-0.6,0-1-0.5c0,0,0.8-0.7,0.8-0.7h2.8
	L70.9,10.8z M68.4,6.1l-0.6,0.5l-0.5-0.6l0.7-3.4l0.7-0.6L69,2.6L68.4,6.1z M72.1,9.5c-0.2,1-0.1,0.8-0.8,1.4l-0.5-0.6l0.3-1.8
	l0.2-1L72,7c0.4,0.4,0.5,0.5,0.4,0.8s-0.1,0.8-0.1,0.8L72.1,9.5z M72.8,6.1l-0.7,0.5l-0.5-0.5l0.7-3.5l0.7-0.6l0.5,0.5L72.8,6.1z"/>
<path d="M74.3,11.8l-0.5-0.6l0.3-1.7l0.2-0.8c0.2-1.3,0.2-1,0.9-1.6c0,0,0.2,0.2,0.4,0.6l-0.7,3.6L74.3,11.8z M76.1,3.2l0.2,0.3
	l-0.5,2.7l-0.7,0.5c-0.6-0.7-0.4-0.8-0.3-1.6l0.2-1.2c0-0.4,0.3-0.8,0.7-1.1L76.1,3.2z M79.5,3.2h-2.9L76,2.6
	c0.6-0.5,0.5-0.5,1.6-0.5H79c1,0,0.8,0,1.2,0.5L79.5,3.2z M78.1,5.7l-0.7,0.5L77,5.7l0.4-2.2h1.2L78.1,5.7z M79.5,7
	C79.9,7.5,80,7.6,80,7.9s-0.1,0.8-0.1,0.8l-0.5,2.6l-0.6,0.5l-0.5-0.6l0.7-3.6L79.5,7z M79.2,5.9l0.5-2.5l0.8-0.6
	c0.4,0.5,0.3,0.4,0.4,0.6c0,0.1-0.1,0.7-0.1,0.9L80.5,5c-0.2,1.1-0.2,1.1-0.9,1.7l-0.5-0.5L79.2,5.9z"/>
<path d="M81.7,8.7c0.2-1.3,0.2-1,0.9-1.6c0,0,0.2,0.2,0.4,0.6l-0.5,2.7l-1.4,1.1l0.4-1.9L81.7,8.7z M85.4,11.6h-4.1l1.4-1.1h2.8
	l0.5,0.7L85.4,11.6z M83.6,3.1l0.2,0.2l-0.5,2.8l-0.7,0.5C82.1,6,82.3,5.8,82.4,5l0.2-1.2l0.3-1.6L83.6,3.1z M83.3,7.4L83,7.1
	l-0.2-0.2l0.4-0.3l0.4-0.3h2.9l0.3,0.3l0.2,0.2l-0.3,0.3l-0.4,0.3H83.3z M86.9,3.2h-2.8l-1-1.2h4.1l0.4,0.5L86.9,3.2z M85.8,0
	c0.1,0,0.3,0,0.4,0H87L86,1c-0.1,0.2-0.3,0.3-0.4,0.4c-0.1,0-0.3,0-0.4,0h-0.8l1.1-1C85.5,0.2,85.6,0.1,85.8,0z"/>
<path d="M88.7,7l0.5,0.6l-0.7,3.6l-0.6,0.5l-0.5-0.6l0.5-2.5C88.1,7.2,88,7.6,88.7,7z M89.7,3l0.2,0.2l-0.6,2.8l-0.7,0.5
	C88.1,6,88.3,5.8,88.4,5l0.2-1.2L89,2.2L89.7,3z M89.4,7.4l-0.3-0.3l-0.2-0.2l0.3-0.3l0.4-0.3h2.9l0.3,0.3l0.2,0.2l-0.3,0.3
	l-0.4,0.3H89.4z M93,3.2h-2.8l-1-1.2h3.3c1,0,0.8,0,1.2,0.5L93,3.2z M92.1,11.6l-2.9-3.3l0.1-0.7h0.7l2.8,3.2l-0.2,0.7H92.1z
	 M92.7,5.9l0.5-2.5L94,2.8c0.4,0.5,0.3,0.4,0.4,0.6c0,0.1-0.1,0.7-0.2,0.9L94,5c-0.2,1.1-0.2,1.1-0.9,1.7l-0.5-0.5L92.7,5.9z"/>
<path d="M95.7,11.2l-0.7,0.5l-0.5-0.6l0.7-3.7L96,6.9l0.4,0.5L95.7,11.2z M96.7,6.1l-0.6,0.5l-0.5-0.6l0.6-3.5L96.9,2l0.4,0.5
	L96.7,6.1z"/>
<path d="M99.4,7.6l-0.5,2.8l-0.7,0.6l-0.3-0.4c-0.1-0.1-0.1-0.2-0.1-0.4c0-0.2,0.1-0.6,0.1-0.8L98,8.7c0.2-1.3,0.2-1,0.9-1.6
	C98.9,7,99.1,7.3,99.4,7.6z M99.9,11.6h-0.6c-0.7,0-0.6,0-1-0.5c0,0,0.8-0.7,0.8-0.7h1.9l0.6,0.6C100.9,11.6,100.8,11.6,99.9,11.6
	L99.9,11.6z M99.9,3.2l0.2,0.3l-0.5,2.7l-0.6,0.5C98.4,6,98.5,5.8,98.7,5l0.2-1.2c0.1-0.6,0.2-0.7,0.6-1.1L99.9,3.2z M103.2,3.2
	h-2.9l-0.5-0.6c0.6-0.5,0.5-0.5,1.6-0.5h1.5c1,0,0.8,0,1.2,0.5L103.2,3.2z M102.1,9.8l1.2,1.4l-0.2,0.7h-0.7l-1.2-1.4l0.1-0.6
	L102.1,9.8z M103.5,8.6c-0.2,1-0.1,0.8-0.8,1.4l-0.5-0.6l0.2-0.9l0.2-1l0.6-0.6c0.4,0.4,0.5,0.5,0.4,0.8s-0.1,0.7-0.1,0.7L103.5,8.6
	z M102.9,5.9l0.5-2.5l0.8-0.6c0.4,0.5,0.3,0.4,0.4,0.6c0,0.1-0.1,0.7-0.1,0.9L104.2,5c-0.2,1.1-0.2,1.1-0.9,1.7l-0.5-0.5L102.9,5.9z
	"/>
<path d="M106.5,7.6l-0.5,2.8l-0.7,0.6l-0.3-0.4c-0.1-0.1-0.1-0.2-0.1-0.4c0-0.2,0.1-0.6,0.1-0.8l0.2-0.8c0.2-1.3,0.2-1,0.9-1.6
	C106.1,7,106.3,7.3,106.5,7.6z M109.4,10.8l0.3,0.4c-0.6,0.5-0.6,0.5-1.6,0.5h-1.5c-0.7,0-0.6,0-1-0.5c0,0,0.8-0.7,0.8-0.7h2.8
	L109.4,10.8z M106.9,6.1l-0.6,0.5l-0.5-0.6l0.6-3.4l0.7-0.6l0.4,0.5L106.9,6.1z M110.6,9.5c-0.2,1-0.1,0.8-0.8,1.4l-0.5-0.6l0.3-1.8
	l0.2-1l0.7-0.6c0.4,0.4,0.5,0.5,0.4,0.8s-0.1,0.8-0.1,0.8L110.6,9.5z M111.3,6.1l-0.7,0.5l-0.5-0.5l0.6-3.5l0.7-0.6l0.5,0.5
	L111.3,6.1z"/>
<path d="M112.7,8.7c0.2-1.3,0.2-1,0.9-1.6c0,0,0.2,0.2,0.4,0.6l-0.5,2.7l-1.4,1.1c0,0,0.3-1.8,0.4-1.9L112.7,8.7z M116.4,11.6h-4.1
	l1.4-1.1h2.9l0.5,0.7L116.4,11.6z M114.7,3.1l0.2,0.2l-0.5,2.8l-0.7,0.5c-0.6-0.7-0.4-0.8-0.3-1.6l0.2-1.2l0.3-1.6L114.7,3.1z
	 M114.3,7.4L114,7.1l-0.2-0.2l0.4-0.3l0.4-0.3h2.8l0.3,0.3l0.2,0.2l-0.3,0.3l-0.4,0.3H114.3L114.3,7.4z M117.9,3.2h-2.8l-1-1.2h4.1
	l0.4,0.5L117.9,3.2z"/>
<path d="M0,20.1l0.7-0.9c0.4,0.4,1,0.6,1.5,0.6c0.4,0,0.5-0.1,0.5-0.3l0,0c0-0.2-0.2-0.3-0.8-0.4c-1-0.2-1.8-0.5-1.8-1.5l0,0
	c0-0.9,0.7-1.5,1.8-1.5c0.7,0,1.4,0.2,1.9,0.6l-0.7,0.9C3,17.3,2.5,17.2,2,17.2c-0.3,0-0.5,0.1-0.5,0.3l0,0c0,0.2,0.2,0.3,0.8,0.5
	c1.1,0.2,1.8,0.6,1.8,1.5l0,0c0,1-0.8,1.5-1.9,1.5C1.4,20.9,0.6,20.7,0,20.1z"/>
<path d="M6.8,16.1H8l2,4.8H8.6L8.3,20H6.5l-0.3,0.8H4.8L6.8,16.1z M7.9,19l-0.5-1.3L6.8,19H7.9z"/>
<path d="M9.9,16.1h1.4l1.1,3l1.1-3h1.4L13,20.9h-1.2L9.9,16.1z"/>
<path d="M15.4,18.5L15.4,18.5c0-1.4,1.1-2.5,2.5-2.5c0,0,0,0,0.1,0c1.4,0,2.5,1,2.5,2.4c0,0,0,0.1,0,0.1l0,0
	c-0.1,1.4-1.3,2.5-2.7,2.4C16.5,20.8,15.5,19.7,15.4,18.5z M19.2,18.5L19.2,18.5c0-0.7-0.5-1.2-1.2-1.2c-0.7,0-1.2,0.5-1.2,1.2l0,0
	c0,0.7,0.5,1.2,1.2,1.3c0,0,0,0,0,0C18.6,19.7,19.2,19.2,19.2,18.5C19.2,18.5,19.2,18.5,19.2,18.5z"/>
<path d="M21.7,16.1H23v4.7h-1.3V16.1z"/>
<path d="M24.4,16.1h2.2c0.6,0,1.1,0.1,1.5,0.5c0.3,0.3,0.4,0.7,0.4,1.1l0,0c0,0.6-0.4,1.2-1,1.4l1.1,1.7h-1.5l-1-1.4h-0.6v1.4h-1.2
	V16.1z M26.5,18.4c0.4,0,0.7-0.2,0.7-0.6l0,0c0-0.4-0.3-0.6-0.7-0.6h-0.9v1.1L26.5,18.4z"/>
<path d="M31.8,18.2h2.2v1.1h-2.2V18.2z"/>
<path d="M39.2,16.1h1.3l2,4.8H41L40.7,20h-1.8l-0.3,0.8h-1.4L39.2,16.1z M40.4,19l-0.5-1.3L39.3,19H40.4z"/>
<path d="M43.4,16.1h3.8v1.1h-2.5v0.8h2.2v1.1h-2.2v1.7h-1.3V16.1z"/>
<path d="M48.2,16.1H52v1.1h-2.5v0.8h2.2v1.1h-2.2v1.7h-1.3V16.1z"/>
<path d="M54.2,16.1h1.3l2,4.8H56L55.7,20h-1.8l-0.3,0.8h-1.4L54.2,16.1z M55.4,19l-0.5-1.3L54.3,19H55.4z"/>
<path d="M58.4,16.1h1.3v4.7h-1.3V16.1z"/>
<path d="M61.1,16.1h2.2c0.6,0,1.1,0.1,1.5,0.5c0.3,0.3,0.4,0.7,0.4,1.1l0,0c0,0.6-0.4,1.2-1,1.4l1.1,1.7h-1.5l-1-1.4h-0.5v1.4h-1.3
	V16.1z M63.2,18.4c0.4,0,0.7-0.2,0.7-0.6l0,0c0-0.4-0.3-0.6-0.7-0.6h-0.9v1.1L63.2,18.4z"/>
<path d="M66.4,16.1h3.8v1.1h-2.5V18h2.3v1h-2.3v0.7h2.5v1.1h-3.8V16.1z"/>
<path d="M71,20.1l0.7-0.9c0.4,0.4,1,0.6,1.5,0.6c0.4,0,0.6-0.1,0.6-0.3l0,0c0-0.2-0.2-0.3-0.8-0.4c-1-0.2-1.8-0.5-1.8-1.5l0,0
	c0-0.9,0.7-1.5,1.8-1.5c0.7,0,1.4,0.2,1.9,0.6l-0.7,0.9c-0.4-0.3-0.8-0.5-1.3-0.5c-0.3,0-0.5,0.1-0.5,0.3l0,0c0,0.2,0.2,0.3,0.8,0.5
	c1.1,0.2,1.8,0.6,1.8,1.5l0,0c0,1-0.8,1.5-1.9,1.5C72.4,20.9,71.6,20.7,71,20.1z"/>
<path d="M78.4,18.2h2.2v1.1h-2.2L78.4,18.2z"/>
<path d="M84,18.5L84,18.5c0-1.3,1-2.4,2.4-2.5c0,0,0.1,0,0.1,0c0.8,0,1.5,0.3,2,1l-1,0.8c-0.2-0.3-0.6-0.5-1-0.6
	c-0.6,0-1.1,0.6-1.1,1.2c0,0,0,0,0,0l0,0c-0.1,0.6,0.4,1.2,1.1,1.3c0,0,0,0,0.1,0c0.4,0,0.8-0.2,1.1-0.6l1,0.7
	c-0.5,0.7-1.3,1.2-2.2,1.1C85,20.9,84,19.9,84,18.5C84,18.5,84,18.5,84,18.5z"/>
<path d="M89.5,18.8v-2.7h1.3v2.6c0,0.7,0.3,1,0.9,1s0.9-0.3,0.9-1v-2.6h1.3v2.6c0.1,1.1-0.7,2.1-1.8,2.2c-0.1,0-0.3,0-0.4,0
	c-1.1,0.1-2-0.6-2.2-1.7C89.5,19.1,89.5,18.9,89.5,18.8z"/>
<path d="M95.1,16.1h1.3v3.6h2.3v1.2h-3.6L95.1,16.1z"/>
<path d="M100.2,17.3h-1.4v-1.1h4.1v1.1h-1.4v3.6h-1.3V17.3z"/>
<path d="M103.9,18.8v-2.7h1.3v2.6c0,0.7,0.3,1,0.9,1s0.9-0.3,0.9-1v-2.6h1.4v2.6c0.1,1.1-0.7,2.1-1.8,2.2c-0.1,0-0.3,0-0.4,0
	c-1.1,0.2-2-0.6-2.2-1.6C103.9,19.1,103.9,18.9,103.9,18.8z"/>
<path d="M109.6,16.1h2.2c0.6,0,1.1,0.1,1.5,0.5c0.3,0.3,0.4,0.7,0.4,1.1l0,0c0,0.6-0.4,1.2-1,1.4l1.1,1.7h-1.5l-0.9-1.4h-0.6v1.4
	h-1.3L109.6,16.1z M111.7,18.4c0.4,0,0.7-0.2,0.7-0.6l0,0c0-0.4-0.3-0.6-0.7-0.6h-0.9v1.1L111.7,18.4z"/>
<path d="M114.9,16.1h3.8v1.1h-2.5V18h2.3v1h-2.3v0.7h2.5v1.1h-3.8L114.9,16.1z"/>
</svg>
