<svg id="Layer_1" data-name="Layer 1" xmlns="http://www.w3.org/2000/svg" viewBox="0 0 216 126"><title>FAN2020_2020_ID_K_Horizontal</title><path d="M49.38,64.32l-.51-.6L49.2,62l.15-.78c.23-1.32.23-1,.88-1.63,0,0,.2.23.45.57L50,63.78Zm1.87-8.61.21.26L51,58.63l-.66.55c-.58-.67-.41-.81-.28-1.6l.22-1.22a1.4,1.4,0,0,1,.65-1.06Zm-.33,4.23-.27-.32-.19-.24.33-.29.35-.28H54l.27.32.21.24-.33.27-.36.3H50.92Zm3.66-4.16H51.64l-.54-.64c.6-.52.48-.51,1.54-.51h1.47c1,0,.75-.05,1.23.52Zm.05,3.81c.38.42.49.51.44.82s-.14.75-.14.75l-.49,2.62-.65.54-.52-.6.7-3.57Zm-.35-1.13.47-2.5.76-.62c.39.47.31.36.37.61,0,.06-.12.68-.16.88l-.13.7c-.2,1.14-.17,1.07-.88,1.65l-.46-.55Z"/><path d="M57.3,63.78l-.65.54-.5-.6.69-3.67.73-.55L58,60Zm1-5.09-.65.53-.5-.59.64-3.43.72-.6.45.55Zm-.33,3.16,3-2.42h.77v.78l-4.07,3.26Zm4.68-3.16-.65.53-.5-.59.65-3.43.72-.6.45.55Z"/><path d="M64.2,64.32l-.51-.6L64,62l.15-.78c.23-1.32.23-1,.88-1.63,0,0,.2.23.45.57l-.66,3.64Zm1.87-8.61.21.26-.5,2.66-.66.55c-.58-.67-.41-.81-.28-1.6l.22-1.22a1.4,1.4,0,0,1,.65-1.06Zm-.33,4.23-.27-.32-.19-.24.33-.29.35-.28h2.87l.27.32.21.24-.33.27-.36.3H65.74Zm3.66-4.16H66.46l-.54-.64c.6-.52.48-.51,1.54-.51h1.47c1,0,.75-.05,1.23.52Zm0,3.81c.38.42.49.51.44.82s-.14.75-.14.75l-.49,2.62-.65.54-.52-.6.7-3.57Zm-.35-1.13.47-2.5.75-.62c.4.47.32.36.38.61,0,.06-.12.68-.16.88l-.13.7c-.2,1.14-.17,1.07-.88,1.65l-.46-.55Z"/><path d="M72.12,63.78l-.65.54-.5-.6.69-3.67.73-.55.45.54Zm1-5.09-.65.53-.5-.59.64-3.43.72-.6.45.55Zm1.58-3.42L76.24,58,76,59h-.62l-1.57-2.85.16-.85Zm1.86,8.51-.65.54-.5-.6.69-3.62.71-.6.46.54Zm1-5.09-.67.53-.48-.55L77,55.2l.71-.6.45.55Z"/><path d="M79.56,54.63h4.49l.39.51s-.75.64-.77.64H79.44l-.54-.67Zm1.06,9.15-.64.54-.52-.6.71-3.67.72-.55.44.54Zm1-5.09-.64.53-.52-.59L81,56H82.1Z"/><path d="M84.25,64.32l-.51-.6L84.07,62l.15-.78c.23-1.32.23-1,.88-1.63,0,0,.2.23.46.57l-.66,3.64Zm1.87-8.61.22.26-.51,2.66-.66.55c-.57-.67-.41-.81-.27-1.6l.21-1.22a1.43,1.43,0,0,1,.65-1.06Zm-.32,4.23-.28-.32-.19-.24.33-.29.35-.28h2.87l.27.32.21.24-.33.27-.36.3H85.8Zm3.65-4.16H86.51L86,55.14c.59-.52.47-.51,1.53-.51H89c1,0,.74-.05,1.22.52Zm0,3.81c.39.42.49.51.45.82l-.15.75-.49,2.62-.65.54-.51-.6.69-3.57Zm-.35-1.13.47-2.5.76-.62c.39.47.31.36.37.61,0,.06-.12.68-.16.88l-.13.7c-.2,1.14-.17,1.07-.87,1.65l-.47-.55Z"/><path d="M92.74,60.14l-.52,2.77-.7.59-.31-.38a.64.64,0,0,1-.06-.37c0-.16.07-.61.09-.77l.16-.78c.24-1.32.24-1,.89-1.63C92.29,59.57,92.48,59.8,92.74,60.14Zm2.79,3.17.3.37c-.63.51-.64.47-1.61.47H92.67c-.72,0-.55,0-1-.49,0,0,.76-.65.78-.65h2.85Zm-2.23-7.6.22.26L93,58.63l-.66.55c-.57-.67-.4-.81-.27-1.6l.22-1.22A1.37,1.37,0,0,1,93,55.3Zm3.33.07H93.7l-.55-.64c.6-.52.48-.51,1.55-.51h1.46c1,0,.76-.05,1.24.52Zm-1.51,4.16-.55-.64c.6-.52.48-.49,1.54-.49h1.12l-1.39,1.13Zm.9,3.58-.51-.61.33-1.77.18-1,1.33-1.07-.54,3C96.61,63.33,96.71,62.92,96,63.52Z"/><path d="M98.35,61.2c.24-1.33.23-1,.87-1.63,0,0,.2.23.46.57l-.52,2.7L97.82,63.9,98.19,62Zm3.72,2.94H98L99.38,63h2.84l.54.67Zm-1.78-8.52.21.22L100,58.63l-.66.55c-.58-.67-.44-.79-.28-1.6l.23-1.22.3-1.57Zm-.38,4.32-.27-.32-.2-.24.35-.29.35-.28H103l.27.32.21.24-.32.27-.37.3H99.91Zm3.66-4.16H100.8l-1-1.15h4.12l.42.52Z"/><path d="M108.74,63.78l-.65.54-.5-.6.69-3.67.74-.55.44.54Zm1-5.09-.65.53-.5-.59.65-3.43.72-.6.44.55Zm1.58-3.42L112.87,58l-.22.93H112l-1.57-2.85.15-.85Zm1.86,8.51-.64.54-.51-.6.7-3.62.71-.6.45.54Zm1-5.09-.68.53-.48-.55.65-3.47.71-.6.45.55Z"/><path d="M116.74,60.14l-.51,2.77-.69.57-.3-.36a.59.59,0,0,1-.08-.37,6.76,6.76,0,0,1,.1-.77l.15-.78c.24-1.32.24-1,.89-1.63C116.3,59.57,116.49,59.8,116.74,60.14Zm2.8,3.17.3.37c-.63.51-.64.47-1.61.47h-1.52c-.72,0-.55,0-1-.49,0,0,.76-.65.78-.65h2.81ZM117,58.69l-.64.53-.51-.59.65-3.43.72-.6.44.55Zm3.78,3.39c-.19,1.05-.11.84-.79,1.44l-.5-.61.32-1.77.18-1,.66-.56c.4.42.49.51.44.82s-.14.75-.14.75Zm.64-3.39-.67.53-.48-.55L121,55.2l.71-.6.46.55Z"/><path d="M122.91,64.32l-.5-.6.32-1.74.16-.78c.24-1.32.24-1,.89-1.63,0,0,.19.23.45.57l-.67,3.64Zm1.87-8.61L125,56l-.5,2.66-.66.55c-.57-.67-.4-.81-.28-1.6l.23-1.22a1.37,1.37,0,0,1,.65-1.06Zm3.34.07h-2.93l-.55-.64c.6-.52.48-.51,1.55-.51h1.46c1,0,.76-.05,1.24.52Zm-1.35,2.51-.66.55-.5-.6.43-2.19h1.15Zm1.4,1.3c.39.42.49.51.44.82s-.14.75-.14.75l-.5,2.62-.64.54-.51-.6.69-3.57Zm-.35-1.13.46-2.5.77-.62c.39.47.31.36.36.61,0,.06-.12.68-.15.88l-.14.7c-.2,1.14-.16,1.07-.86,1.65l-.47-.55Z"/><path d="M130.34,61.2c.24-1.33.23-1,.88-1.63,0,0,.19.23.45.57l-.51,2.7-1.35,1.06.37-1.92Zm3.72,2.94H130L131.37,63h2.84l.54.67Zm-1.78-8.52.21.22L132,58.63l-.66.55c-.58-.67-.43-.79-.28-1.6l.23-1.22.3-1.57Zm-.38,4.32-.26-.32-.21-.24.35-.29.35-.28H135l.27.32.21.24-.32.27-.37.3H131.9Zm3.66-4.16h-2.77l-1-1.15h4.13l.41.52Zm-1.13-3.21a1.08,1.08,0,0,1,.43,0h.83l-1.07,1a1.14,1.14,0,0,1-.43.36,1.28,1.28,0,0,1-.43,0h-.83l1.06-1A1.12,1.12,0,0,1,134.43,52.57Z"/><path d="M137.3,59.57l.46.57-.69,3.64-.65.54-.5-.6.49-2.52C136.69,59.74,136.65,60.16,137.3,59.57Zm1.06-4,.21.22L138,58.63l-.66.55c-.56-.67-.43-.79-.28-1.6l.24-1.22.3-1.57ZM138,59.94l-.27-.32-.19-.24.33-.29.35-.28h2.87l.27.32.21.24-.33.27-.36.3H138Zm3.66-4.16h-2.77l-1-1.15h3.32c1,0,.76-.05,1.24.52Zm-.93,8.37-2.85-3.26.15-.65h.7l2.8,3.17-.16.74Zm.63-5.69.47-2.5.77-.62c.38.47.31.36.36.61,0,.06-.12.68-.16.88l-.13.7c-.2,1.14-.17,1.07-.87,1.65l-.46-.55Z"/><path d="M144.36,63.78l-.66.54-.51-.6.7-3.69.74-.55.44.54Zm1-5.12-.65.54-.5-.6.64-3.45.72-.6.45.54Z"/><path d="M148,60.14l-.52,2.77-.68.57-.3-.36a.53.53,0,0,1-.08-.37c0-.16.07-.61.09-.77l.16-.78c.24-1.32.24-1,.88-1.63C147.53,59.57,147.73,59.8,148,60.14Zm.51,4h-.55c-.72,0-.55,0-1-.49,0,0,.75-.65.78-.65h1.88l.56.64C149.54,64.17,149.47,64.15,148.49,64.15Zm0-8.44.22.26-.51,2.66-.65.55c-.58-.67-.4-.81-.28-1.6l.23-1.22c.09-.59.19-.66.65-1.06Zm3.34.07h-2.94l-.54-.64c.6-.52.48-.51,1.55-.51h1.46c1,0,.75-.05,1.23.52Zm-1.07,6.56L152,63.73l-.18.71h-.68L149.9,63l.15-.63Zm1.41-1.14c-.19,1-.1.84-.79,1.44l-.5-.57.16-.93.18-1,.65-.56c.4.42.5.51.45.82s-.13.7-.13.7Zm-.64-2.74L152,56l.77-.62c.39.47.31.36.36.61,0,.06-.12.68-.15.88l-.14.7c-.2,1.14-.16,1.07-.86,1.65l-.47-.55Z"/><path d="M155.17,60.14l-.52,2.77-.68.57-.3-.36a.51.51,0,0,1-.09-.37c0-.16.08-.61.1-.77l.16-.78c.24-1.32.24-1,.88-1.63C154.72,59.57,154.92,59.8,155.17,60.14ZM158,63.31l.3.37c-.62.51-.63.47-1.6.47h-1.53c-.72,0-.55,0-1-.49,0,0,.76-.65.78-.65h2.81Zm-2.49-4.62-.65.53-.5-.59L155,55.2l.72-.6.45.55Zm3.77,3.39c-.19,1.05-.1.84-.79,1.44l-.5-.61.32-1.77.18-1,.66-.56c.4.42.5.51.45.82s-.15.75-.15.75Zm.64-3.39-.67.53-.48-.55.65-3.47.7-.6.46.55Z"/><path d="M161.37,61.2c.24-1.33.23-1,.88-1.63,0,0,.19.23.45.57l-.51,2.7-1.35,1.06s.34-1.76.38-1.92Zm3.72,2.94H161L162.4,63h2.85l.54.67Zm-1.77-8.52.2.22L163,58.63l-.66.55c-.58-.67-.43-.79-.28-1.6l.23-1.22.3-1.57Zm-.39,4.32-.26-.32-.21-.24.35-.29.35-.28H166l.26.32.21.24-.32.27-.37.3h-2.88Zm3.66-4.16h-2.77l-1-1.15h4.13l.42.52Z"/><path d="M48.64,72.68l.73-.86a2.45,2.45,0,0,0,1.53.56c.36,0,.55-.12.55-.32v0c0-.2-.16-.3-.8-.45-1-.23-1.78-.52-1.78-1.48h0c0-.88.69-1.51,1.82-1.51a3,3,0,0,1,1.94.62l-.65.93a2.31,2.31,0,0,0-1.32-.47c-.32,0-.47.13-.47.31h0c0,.22.16.31.82.46,1.08.23,1.75.58,1.75,1.47h0c0,1-.76,1.54-1.91,1.54A3.32,3.32,0,0,1,48.64,72.68Z"/><path d="M55.4,68.63h1.26l2,4.76h-1.4l-.34-.85H55.1l-.33.85H53.4Zm1.14,2.89L56,70.18l-.53,1.34Z"/><path d="M58.56,68.67H60l1.07,3,1.08-3h1.43l-1.91,4.75H60.46Z"/><path d="M64.06,71h0a2.48,2.48,0,0,1,2.55-2.46A2.45,2.45,0,0,1,69.15,71v0a2.55,2.55,0,0,1-5.09,0Zm3.74,0h0a1.2,1.2,0,1,0-2.4,0v0a1.22,1.22,0,0,0,1.21,1.27A1.2,1.2,0,0,0,67.8,71Z"/><path d="M70.33,68.67h1.31v4.72H70.33Z"/><path d="M73,68.67H75.2a2.13,2.13,0,0,1,1.54.5,1.48,1.48,0,0,1,.42,1.1v0a1.5,1.5,0,0,1-1,1.45l1.12,1.65h-1.5l-1-1.43h-.58v1.43H73Zm2.18,2.26c.44,0,.7-.21.7-.56h0c0-.38-.28-.57-.71-.57h-.86v1.14Z"/><path d="M80.48,70.72h2.21v1.12H80.48Z"/><path d="M87.82,68.63h1.27l2,4.76h-1.4l-.34-.85H87.53l-.34.85H85.82ZM89,71.52l-.53-1.34-.53,1.34Z"/><path d="M92,68.67H95.8v1.14H93.33v.81h2.24V71.7H93.33v1.69H92Z"/><path d="M96.87,68.67h3.78v1.14H98.18v.81h2.23V71.7H98.18v1.69H96.87Z"/><path d="M102.81,68.63h1.26l2,4.76h-1.4l-.34-.85h-1.82l-.34.85h-1.37ZM104,71.52l-.53-1.34-.53,1.34Z"/><path d="M107.05,68.67h1.31v4.72h-1.31Z"/><path d="M109.69,68.67h2.23a2.12,2.12,0,0,1,1.54.5,1.48,1.48,0,0,1,.42,1.1v0a1.5,1.5,0,0,1-1,1.45L114,73.39h-1.5l-1-1.43H111v1.43h-1.31Zm2.18,2.26c.44,0,.7-.21.7-.56h0c0-.38-.28-.57-.71-.57H111v1.14Z"/><path d="M115,68.67h3.8v1.1h-2.5v.73h2.26v1h-2.26v.74h2.53v1.12H115Z"/><path d="M119.63,72.68l.73-.86a2.43,2.43,0,0,0,1.53.56c.36,0,.55-.12.55-.32v0c0-.2-.16-.3-.81-.45-1-.23-1.78-.52-1.78-1.48h0c0-.88.7-1.51,1.83-1.51a3,3,0,0,1,1.94.62l-.65.93a2.31,2.31,0,0,0-1.32-.47c-.32,0-.47.13-.47.31h0c0,.22.16.31.82.46,1.08.23,1.75.58,1.75,1.47h0c0,1-.76,1.54-1.91,1.54A3.32,3.32,0,0,1,119.63,72.68Z"/><path d="M127.05,70.72h2.21v1.12h-2.21Z"/><path d="M132.61,71h0a2.42,2.42,0,0,1,2.48-2.46,2.33,2.33,0,0,1,2,1l-1,.76a1.28,1.28,0,0,0-1-.55A1.17,1.17,0,0,0,134,71v0a1.16,1.16,0,0,0,1.12,1.26,1.3,1.3,0,0,0,1.07-.58l1,.71A2.37,2.37,0,0,1,135,73.48,2.39,2.39,0,0,1,132.61,71Z"/><path d="M138.11,71.32V68.67h1.32v2.62c0,.68.34,1,.87,1s.87-.31.87-1V68.67h1.32v2.61a2,2,0,0,1-2.21,2.19A1.94,1.94,0,0,1,138.11,71.32Z"/><path d="M143.74,68.67h1.31v3.57h2.29v1.15h-3.6Z"/><path d="M148.86,69.81h-1.41V68.67h4.13v1.14h-1.42v3.58h-1.3Z"/><path d="M152.57,71.32V68.67h1.32v2.62c0,.68.34,1,.87,1s.88-.31.88-1V68.67H157v2.61a2,2,0,0,1-2.21,2.19A1.94,1.94,0,0,1,152.57,71.32Z"/><path d="M158.21,68.67h2.23a2.09,2.09,0,0,1,1.53.5,1.48,1.48,0,0,1,.42,1.1v0a1.49,1.49,0,0,1-1,1.45l1.13,1.65H161L160.09,72h-.58v1.43h-1.3Zm2.17,2.26c.44,0,.71-.21.71-.56h0c0-.38-.28-.57-.71-.57h-.87v1.14Z"/><path d="M163.53,68.67h3.79v1.1h-2.5v.73h2.27v1h-2.27v.74h2.54v1.12h-3.83Z"/></svg>